Coordinates
version=1
nRows=29
nColumns=24
inDegrees=yes

Units are S.I. units (second, meters, Newtons, ...)
Angles are in degrees.

endheader
time	pelvis_tilt	pelvis_list	pelvis_rotation	pelvis_tx	pelvis_ty	pelvis_tz	hip_flexion_r	hip_adduction_r	hip_rotation_r	knee_angle_r	ankle_angle_r	subtalar_angle_r	mtp_angle_r	hip_flexion_l	hip_adduction_l	hip_rotation_l	knee_angle_l	ankle_angle_l	subtalar_angle_l	mtp_angle_l	lumbar_extension	lumbar_bending	lumbar_rotation
      0.65800000	      1.90188720	     -2.24273183	      0.07438412	     -0.52697678	      1.06823801	      0.34763503	      9.92988156	      6.59416195	     -5.37852855	    -17.55181218	      7.21993849	     -2.37487741	      0.45783156	     16.50489678	     -3.99543187	     -0.73054876	    -69.26940617	      6.87018591	      5.60308727	      3.92425091	     -1.42510524	      5.94382256	      0.40894845
      0.66216667	      1.89137315	     -2.12592805	      0.03131495	     -0.52185806	      1.06891616	      0.34777016	      9.59258324	      6.46842033	     -5.39667680	    -17.49572089	      7.46624202	     -2.19670634	      0.46283697	     17.08130273	     -3.79389615	     -0.56765853	    -69.02119397	      7.48756688	      5.44860754	      3.91771465	     -1.43138824	      5.87486987	      0.49555805
      0.66633333	      1.89030776	     -2.05387003	      0.04666724	     -0.51671659	      1.06957730	      0.34808716	      9.21308424	      6.41903497	     -5.32950067	    -17.35399758	      7.62287595	     -2.09979651	      0.46540824	     17.64707552	     -3.66015900	     -0.36691877	    -68.69856677	      7.88380417	      5.28947045	      3.91175083	     -1.44902741	      5.70773448	      0.56927859
      0.67050000	      1.89790313	     -1.95522068	      0.03096524	     -0.51155844	      1.07025316	      0.34829379	      8.83231630	      6.32759205	     -5.29992044	    -17.23907403	      7.81255813	     -2.01917084	      0.46766551	     18.16818675	     -3.48477815	     -0.20693449	    -68.28608561	      8.37531507	      5.06342262	      3.90446080	     -1.46599746	      5.58216056	      0.63937860
      0.67466667	      1.88662048	     -1.85952863	      0.01279234	     -0.50641324	      1.07087250	      0.34850810	      8.47055723	      6.24182739	     -5.25510299	    -17.12094904	      7.99559032	     -1.92959165	      0.46937310	     18.69177991	     -3.31393767	     -0.05692543	    -67.79603606	      8.81636289	      4.81835452	      3.89261794	     -1.48396738	      5.46582197	      0.71020198
      0.67883333	      1.88498931	     -1.76209744	     -0.00140237	     -0.50125945	      1.07148921	      0.34871038	      8.09258072	      6.15603593	     -5.20373979	    -16.98883897	      8.16724208	     -1.85962585	      0.47000112	     19.18147595	     -3.14010452	      0.08379701	    -67.22243174	      9.20257099	      4.55514002	      3.87696557	     -1.49803629	      5.34812937	      0.77960830
      0.68300000	      1.88097793	     -1.67268134	     -0.00646389	     -0.49607612	      1.07208372	      0.34893114	      7.70702254	      6.08417139	     -5.13768680	    -16.83333505	      8.31629152	     -1.81707592	      0.46983796	     19.65219836	     -2.97733859	      0.21894867	    -66.56986672	      9.53385345	      4.28747872	      3.86142937	     -1.50724441	      5.22129857	      0.84159004
      0.68716667	      1.85144601	     -1.57792811	     -0.01791142	     -0.49098220	      1.07259190	      0.34906475	      7.36039260	      5.99768003	     -5.04811273	    -16.69813585	      8.39794350	     -1.81043249	      0.46946807	     20.13629492	     -2.79970148	      0.36300435	    -65.84162630	      9.72706796	      4.13491480	      3.85317841	     -1.57061817	      5.18073116	      0.86484532
      0.69133333	      1.87498144	     -1.49600796	     -0.01236954	     -0.48568340	      1.07318611	      0.34932254	      6.92301611	      5.94513011	     -4.99949164	    -16.50512490	      8.59685239	     -1.80862102	      0.46822040	     20.52026453	     -2.65202939	      0.46755377	    -65.03660525	     10.14501972	      3.69028938	      3.83273569	     -1.50035277	      4.97589445	      0.94735661
      0.69550000	      1.87552363	     -1.39258155	     -0.07080845	     -0.48057652	      1.07369339	      0.34945247	      6.54734153	      5.85124381	     -4.91706345	    -16.38021472	      8.78658865	     -1.77343749	      0.46266279	     20.91212174	     -2.47665982	      0.51526003	    -64.15704298	     10.42460978	      3.11102439	      3.78244129	     -1.63006634	      4.88317575	      1.02480833
      0.69966667	      1.87372499	     -1.32262211	     -0.03582103	     -0.47531779	      1.07417632	      0.34962475	      6.12912011	      5.80976348	     -4.82087947	    -16.16308729	      8.88660551	     -1.79006765	      0.45885291	     21.28815021	     -2.32891558	      0.65604670	    -63.20310863	     10.58585656	      2.84791205	      3.75631048	     -1.57104762	      4.78435860	      1.08193684
      0.70383333	      1.85580827	     -1.23545935	     -0.03655763	     -0.47005053	      1.07460421	      0.34976098	      5.73640624	      5.74537869	     -4.73089311	    -15.96799782	      9.01198162	     -1.85221122	      0.45359926	     21.64725760	     -2.16583443	      0.74785342	    -62.17362636	     10.79810774	      2.45237025	      3.72393069	     -1.54015076	      4.66073331	      1.13797047
      0.70800000	      1.85236665	     -1.15939893	     -0.04007471	     -0.46481155	      1.07501495	      0.34989871	      5.32532431	      5.69820360	     -4.60348674	    -15.76315220	      9.13139602	     -1.93798328	      0.44614833	     21.96939634	     -2.01880922	      0.82659483	    -61.07700976	     10.95749484	      1.98743826	      3.68165693	     -1.53496734	      4.55974571	      1.19102271
      0.71216667	      1.85896106	     -1.07349794	     -0.08950933	     -0.45966851	      1.07538970	      0.35003184	      4.92178681	      5.63929024	     -4.44970715	    -15.58577507	      9.23624366	     -2.08770659	      0.42858852	     22.25725313	     -1.87229248	      0.84093247	    -59.90818619	     10.98512085	      1.28808125	      3.59188107	     -1.69615520	      4.43335294	      1.26267107
      0.71633333	      1.83612986	     -1.02126555	     -0.03886527	     -0.45436688	      1.07567756	      0.35010906	      4.51181446	      5.62382311	     -4.32573112	    -15.33871606	      9.30832670	     -2.16986996	      0.42094286	     22.55732962	     -1.74008322	      0.96500042	    -58.68412998	     11.07080700	      1.04705625	      3.55498657	     -1.59631100	      4.40577064	      1.30341079
      0.72050000	      1.83792450	     -0.94689655	     -0.07608747	     -0.44915450	      1.07597763	      0.35026540	      4.09161309	      5.59002699	     -4.09767085	    -15.11672532	      9.37450326	     -2.44032335	      0.39209592	     22.79564974	     -1.61358039	      0.96925838	    -57.37537649	     11.00070971	      0.31095751	      3.42553951	     -1.69085000	      4.28246007	      1.37883977
      0.72466667	      1.80485323	     -0.89163967	     -0.02820006	     -0.44380968	      1.07617356	      0.35027174	      3.69335792	      5.56951236	     -3.99099708	    -14.87636450	      9.44665809	     -2.56199950	      0.38225555	     23.05069252	     -1.47619995	      1.07400719	    -56.02422157	     11.07614199	      0.09336988	      3.38320674	     -1.58896827	      4.24526998	      1.41445771
      0.72883333	      1.77027541	     -0.83221490	     -0.01147508	     -0.43845391	      1.07634129	      0.35031788	      3.29349087	      5.55160240	     -3.80897752	    -14.63093305	      9.52709880	     -2.78508125	      0.36790610	     23.27420916	     -1.34896610	      1.12978833	    -54.60052261	     11.08147207	     -0.30405489	      3.32363722	     -1.50457284	      4.15327186	      1.45290858
      0.73300000	      1.76376848	     -0.77657912	     -0.05656783	     -0.43326171	      1.07647766	      0.35048573	      2.87978598	      5.55159239	     -3.47819264	    -14.39630423	      9.51194093	     -3.22930735	      0.32579345	     23.45106542	     -1.25834007	      1.09750827	    -53.11194489	     10.80639142	     -1.04639544	      3.15766738	     -1.64571205	      4.07220777	      1.50960444
      0.73716667	      1.71613121	     -0.72197157	     -0.03331978	     -0.42789377	      1.07652506	      0.35048198	      2.49788190	      5.54007428	     -3.30461809	    -14.15858242	      9.56495041	     -3.53657910	      0.29605466	     23.63994453	     -1.13791269	      1.14157534	    -51.57285588	     10.72862778	     -1.39075046	      3.04451851	     -1.60278144	      3.93824420	      1.56445257
      0.74133333	      1.67433315	     -0.67752631	     -0.02773088	     -0.42253433	      1.07653121	      0.35052921	      2.10460124	      5.54996770	     -3.02955530	    -13.90403224	      9.58820239	     -3.90733645	      0.26106106	     23.79858217	     -1.04286150	      1.14765361	    -49.98157908	     10.55334430	     -1.78718532	      2.91512027	     -1.55701840	      3.88993336	      1.60173216
      0.74550000	      1.61461320	     -0.65741882	      0.03348992	     -0.41714706	      1.07644194	      0.35041879	      1.73251775	      5.57684484	     -2.85675629	    -13.65410642	      9.63522900	     -4.09918854	      0.24611965	     23.96312277	     -0.94666703	      1.21381340	    -48.36321319	     10.51915779	     -1.94625850	      2.86105919	     -1.42334715	      3.95940161	      1.61539087
      0.74966667	      1.56203107	     -0.61295298	      0.05784403	     -0.41168903	      1.07634469	      0.35037524	      1.34853986	      5.58163726	     -2.62276169	    -13.40805382	      9.69141953	     -4.43814019	      0.22608632	     24.07841959	     -0.84689845	      1.21743010	    -46.67002582	     10.34557934	     -2.19906799	      2.79214911	     -1.29374978	      3.90139543	      1.64031336
      0.75383333	      1.52296544	     -0.57425000	      0.00325267	     -0.40637919	      1.07620938	      0.35053608	      0.96366872	      5.61174781	     -2.18305224	    -13.17354301	      9.65058162	     -5.10992809	      0.17976619	     24.16027694	     -0.79965693	      1.11981587	    -44.92123460	      9.88839230	     -2.70525593	      2.64266535	     -1.40461912	      3.72057812	      1.67919460
      0.75800000	      1.48602079	     -0.55673663	      0.03459472	     -0.40095902	      1.07601401	      0.35047973	      0.56785774	      5.65184659	     -1.89603625	    -12.92709212	      9.62610212	     -5.60336748	      0.13520459	     24.22427151	     -0.73262992	      1.10702066	    -43.15848460	      9.64399742	     -2.93389089	      2.50340868	     -1.35728457	      3.71665795	      1.72593235
      0.76216667	      1.41576920	     -0.55338494	      0.08769021	     -0.39553169	      1.07571159	      0.35022656	      0.22438921	      5.68975921	     -1.72436411	    -12.72219513	      9.67466517	     -5.82298977	      0.11888721	     24.30779442	     -0.65562232	      1.13350472	    -41.38333063	      9.56838547	     -2.97895095	      2.45226052	     -1.19944756	      3.84866139	      1.72755576
      0.76633333	      1.35399947	     -0.52255026	      0.05540308	     -0.39005818	      1.07540834	      0.35035328	     -0.14399844	      5.73010427	     -1.28359981	    -12.48673491	      9.67624681	     -6.50007403	      0.06986340	     24.34413404	     -0.62192104	      0.99168557	    -39.53449702	      9.08398514	     -3.19844328	      2.30860025	     -1.22509687	      3.67019749	      1.76521139
      0.77050000	      1.30997559	     -0.52214394	      0.07936381	     -0.38459053	      1.07504956	      0.35027109	     -0.52457905	      5.78879547	     -0.96224368	    -12.26501652	      9.65744833	     -7.05938861	      0.02029896	     24.35598260	     -0.58388059	      0.92572249	    -37.69319221	      8.79879155	     -3.29099362	      2.17101621	     -1.15040290	      3.68265528	      1.79955227
      0.77466667	      1.22928153	     -0.54101065	      0.13844900	     -0.37909257	      1.07458281	      0.34996964	     -0.84528981	      5.84847149	     -0.80605042	    -12.08738844	      9.71266623	     -7.29825114	      0.00248674	     24.39726136	     -0.53365851	      0.89604804	    -35.86106946	      8.70285560	     -3.25938735	      2.12172055	     -0.97802118	      3.85691842	      1.79221007
